<svg height="492pt" viewBox="-43 0 492 492.00501" width="492pt" xmlns="http://www.w3.org/2000/svg"><g fill="#d4e1f4"><path d="m93.703125 215.441406c-.035156-.191406-.078125-.382812-.132813-.566406l-4.9375-16.984375c-.417968-2.511719-2.378906-4.488281-4.886718-4.925781-5.101563-.90625-9.601563-3.882813-12.433594-8.226563-2.832031-4.339843-3.738281-9.660156-2.507812-14.695312 1.070312-4.476563 4.511718-8 8.957031-9.175781 5.808593 2.867187 12.667969 2.609374 18.246093-.683594 5.574219-3.292969 9.113282-9.179688 9.40625-15.648438l1.359376-29.847656c2.171874.027344 4.882812.03125 8.042968-.019531-.332031-.28125-.671875-.554688-1-.84375-11.757812.847656-21.277344.9375-27.039062.863281l-1.359375 29.847656c-.273438 6.480469-3.808594 12.378906-9.390625 15.675782-5.582032 3.296874-12.453125 3.546874-18.261719.65625-4.445313 1.175781-7.886719 4.699218-8.957031 9.175781-1.230469 5.035156-.324219 10.355469 2.507812 14.695312 2.832032 4.34375 7.332032 7.320313 12.433594 8.226563 2.507812.4375 4.46875 2.414062 4.886719 4.925781l4.9375 16.984375c.054687.183594.097656.375.132812.566406 8.261719 44.300782 49.472657 74.59375 94.222657 69.257813-37.21875-4.390625-67.273438-32.433594-74.226563-69.257813zm0 0"/><path d="m167.945312 12.542969c-26.09375-2.839844-52.160156 5.550781-71.699218 23.074219-19.539063 17.527343-30.699219 42.535156-30.699219 68.78125v46.4375c1.960937.179687 3.910156-.449219 5.398437-1.742188 1.488282-1.292969 2.382813-3.136719 2.480469-5.105469l1.628907-35.726562c.070312-1.59375.777343-3.09375 1.960937-4.167969 1.179687-1.074219 2.742187-1.632812 4.335937-1.550781.058594 0 1.558594.074219 4.21875.117187.929688-46.460937 36.183594-85.027344 82.375-90.117187zm0 0"/><path d="m140.160156 316.269531v-20.597656c-6.863281-1.269531-13.566406-3.273437-20-5.972656v26.570312c14.832032 7.164063 31.402344 9.960938 47.765625 8.058594-9.644531-1.101563-19.03125-3.824219-27.765625-8.058594zm0 0"/><path d="m33.027344 381.613281c.132812-.574219.277344-1.144531.433594-1.714843 3.980468-14.5 15.230468-26.027344 30.09375-30.84375l58.375-18.929688c-2.851563-1.113281-5.65625-2.367188-8.414063-3.757812l-69.960937 22.6875c-14.863282 4.816406-26.113282 16.34375-30.09375 30.84375-.15625.570312-.300782 1.140624-.433594 1.714843-.714844 3.179688-1.058594 6.425781-1.023438 9.683594v43.398437h20v-43.394531c-.035156-3.257812.308594-6.507812 1.023438-9.6875zm0 0"/></g><path d="m262.34375 149.601562v-45.203124c0-57.65625-46.742188-104.398438-104.398438-104.398438-57.660156 0-104.402343 46.742188-104.402343 104.398438v45.191406c-8.179688 2.574218-14.402344 9.257812-16.394531 17.601562-3.859376 15.777344 5.214843 31.839844 20.722656 36.679688l4.09375 14.078125c5.265625 27.507812 22.085937 51.433593 46.191406 65.691406v31.851563l-68.304688 22.148437c-18.714843 6.066406-32.90625 20.675781-37.960937 39.082031-.199219.714844-.382813 1.4375-.550781 2.164063-.921875 4.074219-1.371094 8.238281-1.33593775 12.414062v49.398438c0 3.316406 2.68749975 6 5.99999975 6h183.953125v-12h-177.953125v-43.398438c-.035156-3.257812.308594-6.503906 1.023438-9.679687.132812-.574219.277344-1.148438.433594-1.714844 3.980468-14.5 15.230468-26.027344 30.09375-30.847656l69.960937-22.683594c27.929687 14.035156 60.855469 14.042969 88.789063.011719l61.5 20.511719 3.796874-11.382813-59.902343-19.980469v-31.894531c24.105469-14.261719 40.925781-38.183594 46.191406-65.691406l4.09375-14.082031c15.507813-4.839844 24.578125-20.898438 20.722656-36.679688-1.988281-8.328125-8.199219-15.003906-16.363281-17.585938zm-95.683594-44.039062c8.199219 8.824219 35.160156 33.519531 83.683594 38.3125v4.800781c-18.050781-.359375-74.832031-4.171875-119.328125-36.523437.789063-.101563 1.582031-.203125 2.378906-.300782 11.203125-1.433593 22.3125-3.535156 33.265625-6.289062zm-101.113281-1.164062c0-51.03125 41.367187-92.398438 92.398437-92.398438s92.398438 41.367188 92.398438 92.398438v27.394531c-36.757812-3.96875-59.921875-20.578125-70.375-30.039063 18.359375-5.902344 33.949219-13.730468 46.597656-23.433594 1.753906-1.285156 2.671875-3.417968 2.402344-5.574218-.265625-2.15625-1.679688-4-3.691406-4.820313-2.015625-.816406-4.3125-.484375-6.011719.875-25.5625 19.605469-61.53125 27.746094-87.203125 31.121094-16.804688 2.242187-33.765625 3.117187-50.710938 2.621094-1.59375-.082031-3.15625.476562-4.339843 1.550781-1.179688 1.074219-1.886719 2.574219-1.960938 4.171875l-1.625 35.726563c-.097656 1.96875-.992187 3.808593-2.480469 5.101562-1.488281 1.292969-3.4375 1.921875-5.402343 1.746094zm130.144531 211.871093c-23.859375 11.515625-51.671875 11.515625-75.53125 0v-26.570312c24.15625 10.136719 51.375 10.136719 75.53125 0zm56.40625-123.304687c-2.507812.4375-4.464844 2.414062-4.882812 4.925781l-4.9375 16.984375c-.054688.1875-.101563.375-.136719.566406-7.625 40.503906-43.003906 69.839844-84.21875 69.839844s-76.59375-29.335938-84.21875-69.839844c-.035156-.191406-.082031-.382812-.136719-.566406l-4.9375-16.984375c-.417968-2.511719-2.375-4.488281-4.882812-4.925781-5.105469-.90625-9.605469-3.882813-12.4375-8.226563-2.828125-4.339843-3.738282-9.660156-2.503906-14.695312 1.066406-4.476563 4.507812-8 8.957031-9.175781 5.804687 2.867187 12.667969 2.609374 18.242187-.683594 5.574219-3.292969 9.113282-9.179688 9.40625-15.648438l1.359375-29.847656c5.761719.074219 15.28125-.015625 27.039063-.863281 29.8125 25.664062 66.507812 37.042969 92.292968 42.070312 28.425782 5.542969 49.582032 4.804688 50.46875 4.769531.167969-.003906.328126-.023437.488282-.042968 4.894531.894531 8.808594 4.585937 9.980468 9.421875 1.230469 5.035156.324219 10.351562-2.507812 14.695312-2.828125 4.339844-7.328125 7.320313-12.433594 8.226563zm0 0" fill="#0635c9"/><path d="m400.433594 328.949219c-9.152344-6.234375-26.417969-18.597657-39.210938-31.394531-13.589844-13.59375-28.589844-34.210938-34.40625-42.445313-1.863281-2.632813-4.722656-4.390625-7.910156-4.863281-3.191406-.476563-6.4375.378906-8.984375 2.359375l-66.113281 51.421875c-5.078125 3.90625-6.089844 11.167968-2.273438 16.316406 8.386719 11.421875 17.464844 22.589844 27.035156 33.257812l-103.027343 103.027344c-1.421875 1.417969-2.035157 3.453125-1.640625 5.417969l4.1875 20.941406c.472656 2.378907 2.332031 4.238281 4.707031 4.710938l20.941406 4.191406c1.96875.390625 4-.226563 5.421875-1.644531l10.480469-10.480469 13.773437 1.488281c1.777344.191406 3.546876-.417968 4.828126-1.664062s1.941406-2.996094 1.796874-4.777344l-.832031-10.46875 11.46875.214844c1.78125.03125 3.484375-.726563 4.652344-2.074219 1.164063-1.347656 1.671875-3.140625 1.382813-4.898437l-2.101563-12.789063 57.574219-57.578125c10.667968 9.570312 21.835937 18.644531 33.261718 27.035156 5.148438 3.816406 12.40625 2.804688 16.316407-2.273437l51.335937-66.019531c2.003906-2.574219 2.851563-5.863282 2.347656-9.082032-.503906-3.222656-2.320312-6.09375-5.015624-7.929687zm-58.035156 75.515625c-12.65625-9.308594-24.789063-19.304688-36.347657-29.949219-2.363281-2.179687-6.03125-2.105469-8.304687.171875l-63.800782 63.796875c-1.367187 1.367187-1.992187 3.308594-1.679687 5.214844l1.433594 8.726562-10.890625-.203125c-1.695313-.039062-3.328125.648438-4.480469 1.890625-1.160156 1.230469-1.746094 2.898438-1.613281 4.585938l.785156 9.851562-9.433594-1.019531c-1.804687-.191406-3.601562.441406-4.886718 1.722656l-10.238282 10.238282-13.871094-2.769532-2.773437-13.871094 104.800781-104.800781c2.273438-2.273437 2.347656-5.941406.167969-8.308593-10.644531-11.554688-20.640625-23.6875-29.949219-36.34375l65.816406-51.199219c7.480469 10.578125 21.945313 30.179687 35.605469 43.839843 13.402344 13.398438 31.222657 26.199219 40.769531 32.710938zm0 0" fill="#1ae5be"/><path d="m328.589844 301.199219-11.058594-12.636719c-2.09375-2.394531-5.691406-2.738281-8.199219-.789062l-15.078125 11.726562c-2.289062 1.78125-2.976562 4.949219-1.628906 7.519531l18.425781 35.179688c.566407 1.082031 1.449219 1.964843 2.53125 2.53125l35.179688 18.429687c2.570312 1.34375 5.738281.660156 7.519531-1.632812l11.726562-15.078125c1.953126-2.507813 1.609376-6.105469-.785156-8.199219l-12.636718-11.058594c-9.230469-8.078125-17.914063-16.761718-25.996094-25.992187zm26.46875 42.355469-5.171875 6.644531-29.074219-15.230469-15.230469-29.070312 6.648438-5.167969 7.328125 8.375c8.433594 9.632812 17.492187 18.691406 27.125 27.125zm0 0" fill="#1ae5be"/></svg>